<svg width="403" height="42" viewBox="0 0 403 42" fill="none" xmlns="http://www.w3.org/2000/svg">
<path d="M7.59547 32.7668L0.980469 9.77185H7.41547L9.80047 19.2218C9.86047 19.4618 9.96547 20.0018 10.1155 20.8418C10.2655 21.6818 10.3855 22.2668 10.4755 22.5968C10.5355 22.3868 10.6555 21.8468 10.8355 20.9768C11.0155 20.1068 11.1505 19.5218 11.2405 19.2218L13.6705 9.77185H19.5205L21.9055 19.2218C21.9655 19.4618 22.0855 20.0018 22.2655 20.8418C22.4455 21.6818 22.5805 22.2668 22.6705 22.5968C22.7305 22.3268 22.8205 21.7718 22.9405 20.9318C23.0905 20.0618 23.2105 19.4918 23.3005 19.2218L25.8205 9.77185H32.2555L25.5955 32.7668H19.8355L17.4055 22.3268C17.4055 22.2368 17.2855 21.7118 17.0455 20.7518C16.8355 19.7918 16.7005 19.0718 16.6405 18.5918C16.5805 18.9518 16.4905 19.4018 16.3705 19.9418C16.2505 20.4518 16.1305 20.9468 16.0105 21.4268C15.8905 21.9068 15.8155 22.2068 15.7855 22.3268L13.3555 32.7668H7.59547Z" fill="#DADADA"/>
<path d="M46.8678 33.3068C43.4778 33.3068 40.8078 32.2418 38.8578 30.1118C36.9078 27.9818 35.9328 25.0268 35.9328 21.2468C35.9328 17.5568 36.9078 14.6318 38.8578 12.4718C40.8378 10.3118 43.5078 9.23185 46.8678 9.23185C49.9278 9.23185 52.4178 10.1618 54.3378 12.0218C56.2578 13.8818 57.2178 16.5818 57.2178 20.1218C57.2178 21.5918 57.1578 22.7168 57.0378 23.4968H42.3228C42.3828 24.9368 42.8328 26.0168 43.6728 26.7368C44.5128 27.4268 45.5778 27.7718 46.8678 27.7718C48.9678 27.7718 50.6928 26.9618 52.0428 25.3418L55.8228 29.1218C53.5128 31.9118 50.5278 33.3068 46.8678 33.3068ZM42.3678 18.5918H50.9628C50.6328 16.0418 49.1778 14.7668 46.5978 14.7668C45.4278 14.7668 44.4678 15.1118 43.7178 15.8018C42.9678 16.4618 42.5178 17.3918 42.3678 18.5918Z" fill="#DADADA"/>
<path d="M84.9905 33.3068C83.0705 33.3068 81.6606 32.5418 80.7606 31.0118V32.7668H74.2355V3.20185L80.7606 0.276844V11.4368C81.8106 9.96685 83.3405 9.23185 85.3505 9.23185C88.1105 9.23185 90.3906 10.3268 92.1906 12.5168C93.9906 14.7068 94.8905 17.6168 94.8905 21.2468C94.8905 25.0868 94.0056 28.0568 92.2355 30.1568C90.4655 32.2568 88.0505 33.3068 84.9905 33.3068ZM84.2706 27.0068C85.5906 27.0068 86.5956 26.4968 87.2856 25.4768C88.0056 24.4568 88.3656 23.0468 88.3656 21.2468C88.3656 19.4168 88.0056 18.0068 87.2856 17.0168C86.5956 16.0268 85.5906 15.5318 84.2706 15.5318C82.7406 15.5318 81.5706 16.0268 80.7606 17.0168V25.5668C81.5106 26.5268 82.6806 27.0068 84.2706 27.0068Z" fill="#DADADA"/>
<path d="M113.52 32.7668V31.0568C112.14 32.5568 110.235 33.3068 107.805 33.3068C105.255 33.3068 103.17 32.6618 101.55 31.3718C99.9599 30.0518 99.1648 28.1768 99.1648 25.7468C99.1648 23.3768 100.095 21.5618 101.955 20.3018C103.815 19.0118 105.99 18.3668 108.48 18.3668C110.64 18.3668 112.32 18.6368 113.52 19.1768V17.9168C113.52 16.8668 113.19 16.0718 112.53 15.5318C111.87 14.9618 110.955 14.6768 109.785 14.6768C107.295 14.6768 104.835 15.4868 102.405 17.1068L100.38 12.1118C103.2 10.1918 106.485 9.23185 110.235 9.23185C116.745 9.23185 120 12.2318 120 18.2318V32.7668H113.52ZM109.065 27.8168C110.685 27.8168 112.17 27.2768 113.52 26.1968V24.1268C112.32 23.7668 111.015 23.5868 109.605 23.5868C106.905 23.5868 105.555 24.3218 105.555 25.7918C105.555 27.1418 106.725 27.8168 109.065 27.8168Z" fill="#DADADA"/>
<path d="M126.311 32.7668V9.77185H132.836V11.8418C133.136 11.2418 133.676 10.6568 134.456 10.0868C135.236 9.51685 136.151 9.23185 137.201 9.23185C139.001 9.23185 140.516 9.87685 141.746 11.1668L140.891 17.1068C139.631 16.0568 138.266 15.5318 136.796 15.5318C134.156 15.5318 132.836 17.1218 132.836 20.3018V32.7668H126.311Z" fill="#DADADA"/>
<path d="M154.446 33.3068C151.056 33.3068 148.386 32.2418 146.436 30.1118C144.486 27.9818 143.511 25.0268 143.511 21.2468C143.511 17.5568 144.486 14.6318 146.436 12.4718C148.416 10.3118 151.086 9.23185 154.446 9.23185C157.506 9.23185 159.996 10.1618 161.916 12.0218C163.836 13.8818 164.796 16.5818 164.796 20.1218C164.796 21.5918 164.736 22.7168 164.616 23.4968H149.901C149.961 24.9368 150.411 26.0168 151.251 26.7368C152.091 27.4268 153.156 27.7718 154.446 27.7718C156.546 27.7718 158.271 26.9618 159.621 25.3418L163.401 29.1218C161.091 31.9118 158.106 33.3068 154.446 33.3068ZM149.946 18.5918H158.541C158.211 16.0418 156.756 14.7668 154.176 14.7668C153.006 14.7668 152.046 15.1118 151.296 15.8018C150.546 16.4618 150.096 17.3918 149.946 18.5918Z" fill="#DADADA"/>
<path d="M192.569 33.3068C190.649 33.3068 189.239 32.5418 188.339 31.0118V32.7668H181.814V3.20185L188.339 0.276844V11.4368C189.389 9.96685 190.919 9.23185 192.929 9.23185C195.689 9.23185 197.969 10.3268 199.769 12.5168C201.569 14.7068 202.469 17.6168 202.469 21.2468C202.469 25.0868 201.584 28.0568 199.814 30.1568C198.044 32.2568 195.629 33.3068 192.569 33.3068ZM191.849 27.0068C193.169 27.0068 194.174 26.4968 194.864 25.4768C195.584 24.4568 195.944 23.0468 195.944 21.2468C195.944 19.4168 195.584 18.0068 194.864 17.0168C194.174 16.0268 193.169 15.5318 191.849 15.5318C190.319 15.5318 189.149 16.0268 188.339 17.0168V25.5668C189.089 26.5268 190.259 27.0068 191.849 27.0068Z" fill="#DADADA"/>
<path d="M221.098 32.7668V31.0568C219.718 32.5568 217.813 33.3068 215.383 33.3068C212.833 33.3068 210.748 32.6618 209.128 31.3718C207.538 30.0518 206.743 28.1768 206.743 25.7468C206.743 23.3768 207.673 21.5618 209.533 20.3018C211.393 19.0118 213.568 18.3668 216.058 18.3668C218.218 18.3668 219.898 18.6368 221.098 19.1768V17.9168C221.098 16.8668 220.768 16.0718 220.108 15.5318C219.448 14.9618 218.533 14.6768 217.363 14.6768C214.873 14.6768 212.413 15.4868 209.983 17.1068L207.958 12.1118C210.778 10.1918 214.063 9.23185 217.813 9.23185C224.323 9.23185 227.578 12.2318 227.578 18.2318V32.7668H221.098ZM216.643 27.8168C218.263 27.8168 219.748 27.2768 221.098 26.1968V24.1268C219.898 23.7668 218.593 23.5868 217.183 23.5868C214.483 23.5868 213.133 24.3218 213.133 25.7918C213.133 27.1418 214.303 27.8168 216.643 27.8168Z" fill="#DADADA"/>
<path d="M233.889 32.7668V9.77185H240.414V11.8418C240.714 11.2418 241.254 10.6568 242.034 10.0868C242.814 9.51685 243.729 9.23185 244.779 9.23185C246.579 9.23185 248.094 9.87685 249.324 11.1668L248.469 17.1068C247.209 16.0568 245.844 15.5318 244.374 15.5318C241.734 15.5318 240.414 17.1218 240.414 20.3018V32.7668H233.889Z" fill="#DADADA"/>
<path d="M252.566 32.7668V9.77185H259.091V11.8418C259.391 11.2418 259.931 10.6568 260.711 10.0868C261.491 9.51685 262.406 9.23185 263.456 9.23185C265.256 9.23185 266.771 9.87685 268.001 11.1668L267.146 17.1068C265.886 16.0568 264.521 15.5318 263.051 15.5318C260.411 15.5318 259.091 17.1218 259.091 20.3018V32.7668H252.566Z" fill="#DADADA"/>
<path d="M275.056 7.56685C274.036 7.56685 273.151 7.20685 272.401 6.48685C271.651 5.73685 271.276 4.85185 271.276 3.83185C271.276 2.81185 271.636 1.94185 272.356 1.22185C273.106 0.501846 274.006 0.141846 275.056 0.141846C276.106 0.141846 276.991 0.501846 277.711 1.22185C278.431 1.91185 278.791 2.78185 278.791 3.83185C278.791 4.85185 278.431 5.73685 277.711 6.48685C276.991 7.20685 276.106 7.56685 275.056 7.56685ZM271.771 32.7668V9.77185H278.296V32.7668H271.771Z" fill="#DADADA"/>
<path d="M294.895 33.3068C291.505 33.3068 288.835 32.2418 286.885 30.1118C284.935 27.9818 283.96 25.0268 283.96 21.2468C283.96 17.5568 284.935 14.6318 286.885 12.4718C288.865 10.3118 291.535 9.23185 294.895 9.23185C297.955 9.23185 300.445 10.1618 302.365 12.0218C304.285 13.8818 305.245 16.5818 305.245 20.1218C305.245 21.5918 305.185 22.7168 305.065 23.4968H290.35C290.41 24.9368 290.86 26.0168 291.7 26.7368C292.54 27.4268 293.605 27.7718 294.895 27.7718C296.995 27.7718 298.72 26.9618 300.07 25.3418L303.85 29.1218C301.54 31.9118 298.555 33.3068 294.895 33.3068ZM290.395 18.5918H298.99C298.66 16.0418 297.205 14.7668 294.625 14.7668C293.455 14.7668 292.495 15.1118 291.745 15.8018C290.995 16.4618 290.545 17.3918 290.395 18.5918Z" fill="#DADADA"/>
<path d="M310.661 32.7668V9.77185H317.186V11.8418C317.486 11.2418 318.026 10.6568 318.806 10.0868C319.586 9.51685 320.501 9.23185 321.551 9.23185C323.351 9.23185 324.866 9.87685 326.096 11.1668L325.241 17.1068C323.981 16.0568 322.616 15.5318 321.146 15.5318C318.506 15.5318 317.186 17.1218 317.186 20.3018V32.7668H310.661Z" fill="#DADADA"/>
<path d="M337.565 33.3068C335.675 33.3068 333.86 32.9168 332.12 32.1368C330.38 31.3268 329.045 30.2618 328.115 28.9418L332.3 25.3868C332.93 26.0168 333.74 26.6018 334.73 27.1418C335.72 27.6818 336.725 27.9518 337.745 27.9518C339.875 27.9518 340.94 27.3518 340.94 26.1518C340.94 25.6118 340.655 25.1768 340.085 24.8468C339.545 24.4868 338.525 24.0218 337.025 23.4518C334.175 22.4918 332.105 21.4718 330.815 20.3918C329.525 19.2818 328.88 17.7368 328.88 15.7568C328.88 13.7468 329.69 12.1568 331.31 10.9868C332.96 9.81685 335 9.23185 337.43 9.23185C340.91 9.23185 343.79 10.5068 346.07 13.0568L341.84 16.5218C340.43 15.2318 338.96 14.5868 337.43 14.5868C335.63 14.5868 334.73 15.0818 334.73 16.0718C334.73 17.0018 336.23 17.8418 339.23 18.5918C340.31 18.9518 341.195 19.2968 341.885 19.6268C342.605 19.9268 343.385 20.3768 344.225 20.9768C345.065 21.5468 345.695 22.2668 346.115 23.1368C346.565 24.0068 346.79 25.0118 346.79 26.1518C346.79 28.4018 345.95 30.1568 344.27 31.4168C342.62 32.6768 340.385 33.3068 337.565 33.3068Z" fill="#DADADA"/>
<circle cx="382.179" cy="21.6834" r="20.0167" fill="#C4C4C4"/>
<rect x="368.217" y="8.11169" width="3.98505" height="27.1434" fill="#1A1A1A"/>
<rect x="374.201" y="8.11169" width="3.98505" height="27.1434" fill="#1A1A1A"/>
<rect x="380.186" y="8.11169" width="3.98505" height="27.1434" fill="#1A1A1A"/>
<rect x="386.17" y="8.11169" width="3.98505" height="27.1434" fill="#1A1A1A"/>
<rect x="392.154" y="8.11169" width="3.98505" height="27.1434" fill="#1A1A1A"/>
</svg>
